<?xml version="1.0" standalone="no"?>
<!DOCTYPE svg PUBLIC "-//W3C//DTD SVG 20010904//EN"
 "http://www.w3.org/TR/2001/REC-SVG-20010904/DTD/svg10.dtd">
<svg version="1.0" xmlns="http://www.w3.org/2000/svg"
 width="138.000000pt" height="138.000000pt" viewBox="0 0 138.000000 138.000000"
 preserveAspectRatio="xMidYMid meet">
<metadata>
Created by potrace 1.11, written by Peter Selinger 2001-2013
</metadata>
<g transform="translate(0.000000,138.000000) scale(0.100000,-0.100000)"
fill="#000000" stroke="none">
<path d="M8 1333 c-2 -4 -4 -66 -4 -138 1 -168 20 -185 22 -20 2 156 1 147 26
143 22 -3 22 -7 23 -128 l0 -125 93 -1 92 0 1 30 c0 17 1 74 2 126 2 90 3 95
24 98 23 3 23 3 23 -132 0 -84 4 -136 10 -136 12 0 12 -4 13 158 l1 127 -45 0
-44 0 -2 -115 c-1 -63 -2 -120 -3 -125 0 -8 -111 -13 -140 -6 -3 0 -5 56 -5
124 l0 122 -42 3 c-22 2 -43 -1 -45 -5z"/>
<path d="M504 1320 c-45 -20 -68 -43 -84 -85 -26 -65 -9 -134 44 -178 33 -28
95 -67 106 -67 20 0 9 16 -22 33 -87 47 -134 120 -117 180 18 64 59 100 128
112 66 11 161 -58 161 -117 0 -26 -47 -24 -55 2 -10 32 -54 60 -95 60 -53 0
-95 -48 -86 -98 6 -40 20 -58 59 -78 31 -16 54 -9 24 7 -31 18 -67 59 -67 78
0 10 9 30 21 45 35 45 100 31 124 -27 12 -29 17 -31 52 -29 21 2 41 7 46 11
10 10 -19 90 -41 114 -45 50 -133 67 -198 37z"/>
<path d="M798 1299 c-4 -47 12 -59 71 -52 18 3 36 0 40 -5 4 -6 6 -118 5 -249
0 -131 1 -244 4 -250 2 -7 10 -13 18 -13 15 0 18 12 7 24 -4 4 -8 121 -8 259
l0 252 -58 3 c-54 3 -58 5 -55 25 3 20 10 22 66 25 87 4 78 22 -12 22 l-74 0
-4 -41z"/>
<path d="M972 1329 c3 -8 28 -13 69 -13 58 -1 64 -3 67 -23 3 -20 -1 -22 -59
-25 l-63 -3 1 -255 c0 -174 -3 -257 -10 -262 -16 -10 -1 -22 18 -15 13 6 15
41 15 262 l0 257 38 -2 c79 -4 78 -4 78 43 l-1 42 -79 3 c-58 2 -77 0 -74 -9z"/>
<path d="M590 1063 c1 -5 24 -24 52 -43 69 -47 91 -79 91 -133 0 -79 -53 -137
-133 -145 -72 -7 -134 35 -158 106 -11 31 -10 32 18 32 19 0 31 -6 34 -18 21
-64 113 -86 161 -37 39 38 34 89 -11 131 -33 31 -54 42 -54 28 0 -3 16 -20 35
-38 40 -38 46 -75 15 -106 -19 -19 -38 -25 -70 -20 -22 3 -60 41 -60 61 0 12
-10 18 -32 21 -57 6 -69 0 -63 -34 16 -90 85 -148 175 -148 52 0 80 12 118 51
83 85 60 196 -57 271 -46 29 -61 34 -61 21z"/>
<path d="M4 883 l1 -148 45 0 45 0 0 128 c0 78 4 128 10 128 5 1 37 2 70 3
l60 1 5 -130 5 -130 43 -3 c29 -2 42 1 43 10 1 16 1 270 0 281 -1 4 -5 7 -11
7 -6 0 -10 -53 -10 -140 l0 -140 -25 0 -26 0 3 130 3 130 -30 1 c-16 1 -59 1
-95 1 l-65 1 0 -129 0 -129 -25 -3 -26 -3 1 128 c1 129 -1 153 -15 153 -4 0
-7 -66 -6 -147z"/>
<path d="M25 641 c-18 -5 -20 -15 -21 -79 -1 -50 2 -72 10 -69 6 2 11 28 11
63 0 56 1 59 25 59 l24 0 1 -225 c1 -245 4 -261 57 -279 36 -13 38 5 3 21 -13
6 -28 20 -32 32 -4 12 -7 122 -7 245 l-1 225 -25 6 c-14 4 -34 4 -45 1z"/>
<path d="M262 642 l-22 -3 1 -237 0 -237 -31 -26 c-20 -17 -27 -29 -21 -34 16
-9 71 49 72 77 0 13 0 116 0 231 l-1 207 25 0 c24 0 25 -2 25 -65 0 -37 4 -65
10 -65 12 0 12 1 12 55 0 87 -1 93 -24 97 -13 2 -33 2 -46 0z"/>
<path d="M427 642 c-15 -3 -17 -20 -17 -148 0 -94 4 -143 10 -139 6 4 10 60
10 136 l0 129 145 0 145 0 0 -24 c0 -24 -1 -24 -97 -25 -54 0 -108 0 -120 0
-22 -1 -23 -4 -23 -101 l0 -100 65 0 c37 0 65 -4 65 -10 0 -5 5 -10 10 -10 6
0 10 9 10 20 0 18 -7 20 -65 20 l-65 0 0 80 0 79 118 3 117 3 3 43 3 42 -48 1
c-26 0 -93 1 -149 2 -55 1 -108 1 -117 -1z"/>
<path d="M1043 639 c-12 -4 6 -27 71 -92 48 -48 90 -87 94 -87 13 0 176 169
169 176 -6 6 -60 8 -140 5 -55 -2 -15 -21 44 -21 l60 0 -66 -66 -67 -67 -66
67 -67 66 63 0 c34 0 62 4 62 9 0 11 -132 19 -157 10z"/>
<path d="M317 474 c-4 -4 -7 -78 -7 -164 0 -147 -1 -159 -23 -191 -56 -83
-181 -85 -236 -3 -24 34 -25 43 -26 192 0 98 -4 157 -11 159 -14 5 -11 -304 4
-337 36 -79 121 -114 206 -85 90 31 107 70 109 251 2 145 -2 192 -16 178z"/>
<path d="M610 331 c0 -7 -26 -11 -64 -11 l-64 0 -1 -105 c-1 -94 1 -105 16
-106 10 0 64 -1 121 -1 l103 0 -3 -27 -3 -26 -140 0 -140 0 -3 138 c-4 187
-22 180 -22 -8 0 -131 2 -145 18 -146 25 -1 263 -1 290 0 19 1 22 6 22 46 l0
45 -120 0 -120 0 0 85 0 85 65 0 c50 0 65 3 65 14 0 8 -4 18 -10 21 -5 3 -10
1 -10 -4z"/>
</g>
</svg>
